<?xml version="1.0" encoding="UTF-8" standalone="no"?>
<!DOCTYPE svg PUBLIC "-//W3C//DTD SVG 1.1//EN" "http://www.w3.org/Graphics/SVG/1.1/DTD/svg11.dtd">
<svg width="100%" height="100%" viewBox="0 0 546 148" version="1.1" xmlns="http://www.w3.org/2000/svg" xmlns:xlink="http://www.w3.org/1999/xlink" xml:space="preserve" xmlns:serif="http://www.serif.com/" style="fill-rule:evenodd;clip-rule:evenodd;stroke-linejoin:round;stroke-miterlimit:2;">
    <g transform="matrix(1,0,0,1,-185.343,-220.784)">
        <g transform="matrix(12.524,0,0,14.0683,-2418.22,-2674.6)">
            <text x="217.313px" y="215.258px" style="font-family:'Montserrat-Medium', 'Montserrat';font-weight:500;font-size:12px;">V<tspan x="225.413px " y="215.258px ">A</tspan>DE</text>
        </g>
        <g transform="matrix(0.964512,0,0,0.810731,10.6841,58.0279)">
            <rect x="181.086" y="200.752" width="119.978" height="181.575" style="fill:url(#_Linear1);"/>
        </g>
        <g>
            <g transform="matrix(1,0,0,0.985067,0,5.27489)">
                <rect x="199.112" y="339" width="88.184" height="14.232" style="fill:white;"/>
            </g>
            <g transform="matrix(1,0,0,0.985067,0,-46.5601)">
                <rect x="199.112" y="339" width="88.184" height="14.232" style="fill:white;"/>
            </g>
            <g transform="matrix(1,0,0,0.985067,0,-98.3952)">
                <rect x="199.112" y="339" width="88.184" height="14.232" style="fill:white;"/>
            </g>
        </g>
    </g>
    <defs>
        <linearGradient id="_Linear1" x1="0" y1="0" x2="1" y2="0" gradientUnits="userSpaceOnUse" gradientTransform="matrix(119.978,0,0,181.575,181.086,291.539)"><stop offset="0" style="stop-color:rgb(29,173,143);stop-opacity:1"/><stop offset="1" style="stop-color:rgb(158,46,233);stop-opacity:1"/></linearGradient>
    </defs>
</svg>
