<svg version="1.2" xmlns="http://www.w3.org/2000/svg" viewBox="0 0 546 546" width="546" height="546">
	<title>evade inverted-svg</title>
	<defs>
		<linearGradient id="g1" x1="0" y1="272.6" x2="115.7" y2="272.6" gradientUnits="userSpaceOnUse">
			<stop offset="0" stop-color="#1dad8f"/>
			<stop offset="1" stop-color="#9e2ee9"/>
		</linearGradient>
	</defs>
	<style>
		.s0 { fill: #ffffff } 
		.s1 { fill: url(#g1) } 
		.s2 { fill: #000000 } 
	</style>
	<g id="Layer">
		<g id="Layer">
			<path id="VADE" class="s0" aria-label="VADE"  d="m180.3 335h-16.8l-41.8-123.1h15.5l34.7 103.6 34.8-103.6h15.4zm104.9-45.4l-20.2-61.2-20.1 61.2zm-70.4 45.4l41.9-123h16.8l41.7 123h-15.4l-10-31.5h-49.3l-10 31.5zm149.1-109.4h-17.9v95.7h17.9q22.7 0 33.2-11.5 10.5-11.5 10.5-36.4 0-24.8-10.5-36.2-10.5-11.6-33.2-11.6zm-32.7 109.4v-123h30.4q31.9 0 46.8 14.9 14.9 14.8 14.9 46.5 0 31.8-15 46.7-15 14.9-46.7 14.9zm115.7 0v-123h69.3v14h-54.4v36.4h52.1v14h-52.1v44.6h55.7v14z"/>
		</g>
		<g id="Layer">
			<path id="Layer" class="s1" d="m0 199h115.7v147.2h-115.7z"/>
		</g>
		<g id="Layer">
			<g id="Layer">
				<path id="Layer" class="s2" d="m13.8 317.4h88.2v14h-88.2z"/>
			</g>
			<g id="Layer">
				<path id="Layer" class="s2" d="m13.8 265.6h88.2v14h-88.2z"/>
			</g>
			<g id="Layer">
				<path id="Layer" class="s2" d="m13.8 213.8h88.2v14h-88.2z"/>
			</g>
		</g>
	</g>
</svg>